<svg xmlns="http://www.w3.org/2000/svg" xmlns:xlink="http://www.w3.org/1999/xlink" contentStyleType="text/css" height="288px" preserveAspectRatio="none" style="width:962px;height:288px;background:#FFFFFF;" version="1.1" viewBox="0 0 962 288" width="962px" zoomAndPan="magnify"><defs/><g><text fill="#000000" font-family="sans-serif" font-size="14" font-weight="bold" lengthAdjust="spacing" textLength="208.6533" x="370.1616" y="32.9951">task17a-enum-as-strategy</text><!--class Stage--><g id="elem_Stage"><rect codeLine="9" fill="#F1F1F1" height="78.5938" id="Stage" rx="2.5" ry="2.5" style="stroke:#181818;stroke-width:0.5;" width="110.9102" x="7" y="64.2969"/><ellipse cx="11" cy="95.5938" fill="#ADD1B2" rx="0" ry="0" style="stroke:#181818;stroke-width:1.0;"/><path d="M31.5,116.0938 Q31.5,116.0938 31.5,116.0938 Q31.5,116.0938 31.5,116.0938 Q31.5,116.0938 31.5,116.0938 Q31.5,116.0938 31.5,116.0938 Q31.5,116.0938 31.5,116.0938 Q31.5,116.0938 31.5,116.0938 Q31.5,116.0938 31.5,116.0938 Q31.5,116.0938 31.5,116.0938 L31.5,116.0938 Q31.5,116.0938 31.5,116.0938 Q31.5,116.0938 31.5,116.0938 Q31.5,116.0938 31.5,116.0938 Q31.5,116.0938 31.5,116.0938 Q31.5,116.0938 31.5,116.0938 Q31.5,116.0938 31.5,116.0938 Q31.5,116.0938 31.5,116.0938 Q31.5,116.0938 31.5,116.0938 L31.5,116.0938 Z " fill="#000000"/><text fill="#000000" font-family="sans-serif" font-size="28" lengthAdjust="spacing" textLength="80.9102" x="24" y="105.2871">Stage</text><line style="stroke:#181818;stroke-width:0.5;" x1="8" x2="116.9102" y1="126.8906" y2="126.8906"/><line style="stroke:#181818;stroke-width:0.5;" x1="8" x2="116.9102" y1="134.8906" y2="134.8906"/></g><!--class State--><g id="elem_State"><rect codeLine="13" fill="#F1F1F1" height="78.5938" id="State" rx="2.5" ry="2.5" style="stroke:#181818;stroke-width:0.5;" width="104.1152" x="359.5" y="64.2969"/><ellipse cx="363.5" cy="95.5938" fill="#EB937F" rx="0" ry="0" style="stroke:#181818;stroke-width:1.0;"/><path d="M384,116.0938 L384,116.0938 L384,116.0938 L384,116.0938 L384,116.0938 L384,116.0938 L384,116.0938 L384,116.0938 L384,116.0938 L384,116.0938 L384,116.0938 L384,116.0938 L384,116.0938 Z " fill="#000000"/><text fill="#000000" font-family="sans-serif" font-size="28" lengthAdjust="spacing" textLength="74.1152" x="376.5" y="105.2871">State</text><line style="stroke:#181818;stroke-width:0.5;" x1="360.5" x2="462.6152" y1="126.8906" y2="126.8906"/><line style="stroke:#181818;stroke-width:0.5;" x1="360.5" x2="462.6152" y1="134.8906" y2="134.8906"/></g><!--class ChoosingActor--><g id="elem_ChoosingActor"><rect codeLine="16" fill="#F1F1F1" height="78.5938" id="ChoosingActor" rx="2.5" ry="2.5" style="stroke:#181818;stroke-width:0.5;" width="233.6152" x="133.5" y="203.2969"/><ellipse cx="137.5" cy="234.5938" fill="#EB937F" rx="0" ry="0" style="stroke:#181818;stroke-width:1.0;"/><path d="M158,255.0938 L158,255.0938 L158,255.0938 L158,255.0938 L158,255.0938 L158,255.0938 L158,255.0938 L158,255.0938 L158,255.0938 L158,255.0938 L158,255.0938 L158,255.0938 L158,255.0938 Z " fill="#000000"/><text fill="#000000" font-family="sans-serif" font-size="28" lengthAdjust="spacing" textLength="203.6152" x="150.5" y="244.2871">ChoosingActor</text><line style="stroke:#181818;stroke-width:0.5;" x1="134.5" x2="366.1152" y1="265.8906" y2="265.8906"/><line style="stroke:#181818;stroke-width:0.5;" x1="134.5" x2="366.1152" y1="273.8906" y2="273.8906"/></g><!--class SelectingNewLocation--><g id="elem_SelectingNewLocation"><rect codeLine="19" fill="#F1F1F1" height="78.5938" id="SelectingNewLocation" rx="2.5" ry="2.5" style="stroke:#181818;stroke-width:0.5;" width="339.668" x="402.5" y="203.2969"/><ellipse cx="406.5" cy="234.5938" fill="#EB937F" rx="0" ry="0" style="stroke:#181818;stroke-width:1.0;"/><path d="M427,255.0938 L427,255.0938 L427,255.0938 L427,255.0938 L427,255.0938 L427,255.0938 L427,255.0938 L427,255.0938 L427,255.0938 L427,255.0938 L427,255.0938 L427,255.0938 L427,255.0938 Z " fill="#000000"/><text fill="#000000" font-family="sans-serif" font-size="28" lengthAdjust="spacing" textLength="309.668" x="419.5" y="244.2871">SelectingNewLocation</text><line style="stroke:#181818;stroke-width:0.5;" x1="403.5" x2="741.168" y1="265.8906" y2="265.8906"/><line style="stroke:#181818;stroke-width:0.5;" x1="403.5" x2="741.168" y1="273.8906" y2="273.8906"/></g><!--class BotMoving--><g id="elem_BotMoving"><rect codeLine="22" fill="#F1F1F1" height="78.5938" id="BotMoving" rx="2.5" ry="2.5" style="stroke:#181818;stroke-width:0.5;" width="178.4766" x="777.5" y="203.2969"/><ellipse cx="781.5" cy="234.5938" fill="#EB937F" rx="0" ry="0" style="stroke:#181818;stroke-width:1.0;"/><path d="M802,255.0938 L802,255.0938 L802,255.0938 L802,255.0938 L802,255.0938 L802,255.0938 L802,255.0938 L802,255.0938 L802,255.0938 L802,255.0938 L802,255.0938 L802,255.0938 L802,255.0938 Z " fill="#000000"/><text fill="#000000" font-family="sans-serif" font-size="28" lengthAdjust="spacing" textLength="148.4766" x="794.5" y="244.2871">BotMoving</text><line style="stroke:#181818;stroke-width:0.5;" x1="778.5" x2="954.9766" y1="265.8906" y2="265.8906"/><line style="stroke:#181818;stroke-width:0.5;" x1="778.5" x2="954.9766" y1="273.8906" y2="273.8906"/></g><!--reverse link State to ChoosingActor--><g id="link_State_ChoosingActor"><path d="M352.5089,154.9891 C330.5589,173.6591 317.97,184.3869 295.99,203.0869 " fill="none" id="State-backto-ChoosingActor" style="stroke:#181818;stroke-width:1.0;"/><polygon fill="none" points="366.22,143.3269,348.6215,150.4187,356.3963,159.5594,366.22,143.3269" style="stroke:#181818;stroke-width:1.0;"/></g><!--reverse link State to SelectingNewLocation--><g id="link_State_SelectingNewLocation"><path d="M470.4911,154.9891 C492.4411,173.6591 505.03,184.3869 527.01,203.0869 " fill="none" id="State-backto-SelectingNewLocation" style="stroke:#181818;stroke-width:1.0;"/><polygon fill="none" points="456.78,143.3269,466.6037,159.5594,474.3785,150.4187,456.78,143.3269" style="stroke:#181818;stroke-width:1.0;"/></g><!--reverse link State to BotMoving--><g id="link_State_BotMoving"><path d="M481.002,122.7801 C549.532,140.7401 656.08,169.6469 760.5,203.2969 C766,205.0669 771.64,206.9469 777.31,208.8769 " fill="none" id="State-backto-BotMoving" style="stroke:#181818;stroke-width:1.0;"/><polygon fill="none" points="463.59,118.2169,479.4809,128.5841,482.5231,116.9761,463.59,118.2169" style="stroke:#181818;stroke-width:1.0;"/></g><!--reverse link Stage to State--><g id="link_Stage_State"><path codeLine="26" d="M130.05,103.7969 C210.48,103.7969 278.91,103.7969 359.34,103.7969 " fill="none" id="Stage-backto-State" style="stroke:#181818;stroke-width:1.0;"/><polygon fill="#181818" points="118.05,103.7969,124.05,107.7969,130.05,103.7969,124.05,99.7969,118.05,103.7969" style="stroke:#181818;stroke-width:1.0;"/></g><!--SRC=[TOzHImCn48JVyoloB0IiB_fQ3mH1fVH-mJPPxqBJh6JdRBNutqsiIFNmSMQ-ONSGaTY2TBku9iTvsZbIfoW47jwCqMtCBrHePxj4gakWnCq4llUI-_ZEzl8CML48CGzsSMvsiVZ4eHkhyk1o9ncpvbzeJI5E-Xjfzt_ALpV6-ERO7ZImFPeFOo03O-HILLlI8dn7NxeRHRG-kFIGOla0pa5dLC-9FIhsnFi7yOGe-L_uLl0ehstqdAZCIRZ4pt0NfrS_0G00]--></g></svg>